<svg xmlns="http://www.w3.org/2000/svg" width="15.302" height="18.994" viewBox="0 0 15.302 18.994">
  <g id="Group_101" data-name="Group 101" transform="translate(0 0)">
    <g id="Path_145" data-name="Path 145" transform="translate(0)">
      <g id="Group_660" data-name="Group 660">
        <g id="Group_659" data-name="Group 659">
          <g id="Path_261" data-name="Path 261" transform="translate(-702.86 -1654.96)" fill="#313131">
            <path d="M 716.2313842773438 1673.903930664062 L 704.7905883789062 1673.903930664062 C 703.7536010742188 1673.903930664062 702.9099731445312 1673.060302734375 702.9099731445312 1672.023315429688 L 702.9129028320312 1671.950073242188 L 704.01953125 1659.046142578125 L 706.5162963867188 1659.046142578125 L 706.5660400390625 1659.046142578125 L 706.5662841796875 1658.996337890625 C 706.572021484375 1657.949584960938 706.9828491210938 1656.959594726562 707.7232055664062 1656.208740234375 C 708.4649047851562 1655.456420898438 709.4528198242188 1655.03076171875 710.5050048828125 1655.010009765625 L 710.5199584960938 1655.010009765625 C 711.56982421875 1655.031127929688 712.556396484375 1655.456665039062 713.2969970703125 1656.208251953125 C 714.036376953125 1656.958618164062 714.447509765625 1657.948852539062 714.45458984375 1658.996459960938 L 714.4548950195312 1659.046142578125 L 714.5045776367188 1659.046142578125 L 717.00244140625 1659.046142578125 L 718.1121826171875 1672.027587890625 C 718.1119995117188 1673.060302734375 717.2683715820312 1673.903930664062 716.2313842773438 1673.903930664062 Z M 705.5615234375 1660.726318359375 L 705.5576171875 1660.772094726562 L 704.5913696289062 1672.039794921875 L 704.5908813476562 1672.045654296875 L 704.5917358398438 1672.051513671875 C 704.6065063476562 1672.149658203125 704.6919555664062 1672.223754882812 704.7905883789062 1672.223754882812 L 716.2313842773438 1672.223754882812 C 716.3298950195312 1672.223754882812 716.4154052734375 1672.149658203125 716.4302368164062 1672.051513671875 L 716.4310913085938 1672.045654296875 L 716.4306030273438 1672.039794921875 L 715.4642944335938 1660.772094726562 L 715.4603881835938 1660.726318359375 L 715.4144897460938 1660.726318359375 L 714.5045776367188 1660.726318359375 L 714.45458984375 1660.726318359375 L 714.45458984375 1660.7763671875 L 714.45458984375 1662.361938476562 L 712.8040771484375 1662.361938476562 L 712.8040771484375 1660.7763671875 L 712.8040771484375 1660.726318359375 L 712.7540893554688 1660.726318359375 L 708.2678833007812 1660.726318359375 L 708.2178955078125 1660.726318359375 L 708.2178955078125 1660.7763671875 L 708.2178955078125 1662.361938476562 L 706.5673217773438 1662.361938476562 L 706.5673217773438 1660.7763671875 L 706.5673217773438 1660.726318359375 L 706.517333984375 1660.726318359375 L 705.607421875 1660.726318359375 L 705.5615234375 1660.726318359375 Z M 710.5089721679688 1656.694580078125 C 710.4811401367188 1656.694580078125 710.453125 1656.695068359375 710.4251098632812 1656.696166992188 C 709.186279296875 1656.741821289062 708.2159423828125 1657.74853515625 708.2159423828125 1658.988037109375 L 708.2159423828125 1658.99609375 L 708.2159423828125 1659.046142578125 L 708.2659301757812 1659.046142578125 L 712.7560424804688 1659.046142578125 L 712.8060302734375 1659.046142578125 L 712.8060302734375 1658.99609375 C 712.8060302734375 1658.96533203125 712.8060302734375 1658.934326171875 712.803955078125 1658.90478515625 C 712.758544921875 1657.666137695312 711.7504272460938 1656.694580078125 710.5089721679688 1656.694580078125 Z" stroke="none"/>
            <path d="M 710.5050048828125 1655.059936523438 C 709.46630859375 1655.080688476562 708.4910278320312 1655.501098632812 707.7587890625 1656.243896484375 C 707.0277099609375 1656.9853515625 706.6219482421875 1657.963012695312 706.6162719726562 1658.99658203125 L 706.6157836914062 1659.096069335938 L 706.5162963867188 1659.096069335938 L 704.0654296875 1659.096069335938 L 702.9628295898438 1671.952026367188 L 702.9599609375 1672.023315429688 C 702.9599609375 1673.03271484375 703.7811889648438 1673.85400390625 704.7905883789062 1673.85400390625 L 716.2313842773438 1673.85400390625 C 717.2393798828125 1673.85400390625 718.0596923828125 1673.035034179688 718.0619506835938 1672.027587890625 L 716.95654296875 1659.096069335938 L 714.5045776367188 1659.096069335938 L 714.4052734375 1659.096069335938 L 714.4046020507812 1658.996826171875 C 714.3975830078125 1657.962280273438 713.9915771484375 1656.984375 713.2613525390625 1656.243408203125 C 712.5299682617188 1655.501220703125 711.5556640625 1655.080810546875 710.5199584960938 1655.059936523438 L 710.5050048828125 1655.059936523438 M 712.8560180664062 1659.096069335938 L 712.7560424804688 1659.096069335938 L 708.2659301757812 1659.096069335938 L 708.1659545898438 1659.096069335938 L 708.1659545898438 1658.99609375 L 708.1659545898438 1658.988037109375 C 708.1659545898438 1657.721557617188 709.1574096679688 1656.69287109375 710.4232788085938 1656.646118164062 C 710.4519653320312 1656.645141601562 710.4805297851562 1656.644653320312 710.5089721679688 1656.644653320312 C 711.7774658203125 1656.644653320312 712.8074951171875 1657.637329101562 712.8538208007812 1658.9013671875 C 712.85595703125 1658.932006835938 712.8560180664062 1658.964111328125 712.8560180664062 1658.99609375 L 712.8560180664062 1659.096069335938 M 706.6173095703125 1662.31201171875 L 708.1679077148438 1662.31201171875 L 708.1679077148438 1660.7763671875 L 708.1679077148438 1660.676391601562 L 708.2678833007812 1660.676391601562 L 712.7540893554688 1660.676391601562 L 712.8540649414062 1660.676391601562 L 712.8540649414062 1660.7763671875 L 712.8540649414062 1662.31201171875 L 714.4046020507812 1662.31201171875 L 714.4046020507812 1660.7763671875 L 714.4046020507812 1660.676391601562 L 714.5045776367188 1660.676391601562 L 715.4144897460938 1660.676391601562 L 715.5062866210938 1660.676391601562 L 715.5140991210938 1660.767822265625 L 716.4804077148438 1672.035522460938 L 716.4814453125 1672.04736328125 L 716.4796752929688 1672.058959960938 C 716.461181640625 1672.181396484375 716.3544311523438 1672.273681640625 716.2313842773438 1672.273681640625 L 704.7905883789062 1672.273681640625 C 704.6674194335938 1672.273681640625 704.5606689453125 1672.181396484375 704.5422973632812 1672.058959960938 L 704.54052734375 1672.047241210938 L 704.5415649414062 1672.035522460938 L 705.5078125 1660.767822265625 L 705.515625 1660.676391601562 L 705.607421875 1660.676391601562 L 706.517333984375 1660.676391601562 L 706.6173095703125 1660.676391601562 L 706.6173095703125 1660.7763671875 L 706.6173095703125 1662.31201171875 M 710.5040283203125 1654.9599609375 L 710.5199584960938 1654.9599609375 C 712.7223510742188 1655.00439453125 714.48974609375 1656.805419921875 714.5045776367188 1658.99609375 L 717.04833984375 1658.99609375 L 718.1619873046875 1672.023315429688 C 718.1619873046875 1673.087646484375 717.2955322265625 1673.953979492188 716.2313842773438 1673.953979492188 L 704.7905883789062 1673.953979492188 C 703.726318359375 1673.953979492188 702.8599853515625 1673.087646484375 702.8599853515625 1672.023315429688 L 702.8629150390625 1671.948120117188 L 703.9736328125 1658.99609375 L 706.5162963867188 1658.99609375 C 706.5282592773438 1656.807495117188 708.2985229492188 1655.003540039062 710.5040283203125 1654.9599609375 Z M 712.7560424804688 1658.99609375 C 712.7560424804688 1658.966430664062 712.7560424804688 1658.936645507812 712.7540893554688 1658.908203125 C 712.7095947265625 1657.6953125 711.7119140625 1656.74462890625 710.5089721679688 1656.74462890625 C 710.481689453125 1656.74462890625 710.454345703125 1656.7451171875 710.4268798828125 1656.74609375 C 709.2183227539062 1656.790649414062 708.2659301757812 1657.788452148438 708.2659301757812 1658.988037109375 L 708.2659301757812 1658.99609375 L 712.7560424804688 1658.99609375 Z M 708.2678833007812 1662.411987304688 L 706.517333984375 1662.411987304688 L 706.517333984375 1660.7763671875 L 705.607421875 1660.7763671875 L 704.6411743164062 1672.044067382812 C 704.6520385742188 1672.116333007812 704.7153930664062 1672.173706054688 704.7905883789062 1672.173706054688 L 716.2313842773438 1672.173706054688 C 716.3065795898438 1672.173706054688 716.369873046875 1672.116333007812 716.3807983398438 1672.044067382812 L 715.4144897460938 1660.7763671875 L 714.5045776367188 1660.7763671875 L 714.5045776367188 1662.411987304688 L 712.7540893554688 1662.411987304688 L 712.7540893554688 1660.7763671875 L 708.2678833007812 1660.7763671875 L 708.2678833007812 1662.411987304688 Z" stroke="none" fill="#fff"/>
          </g>
        </g>
      </g>
    </g>
  </g>
</svg>
