<svg xmlns="http://www.w3.org/2000/svg" width="44.646" height="47.445" viewBox="0 0 44.646 47.445">
  <g id="Group_139" data-name="Group 139" transform="translate(0.25 0.25)">
    <path id="Path_6" data-name="Path 6" d="M-841.372,4455.165a3.417,3.417,0,0,0-4.8-.5c-1.84,1.5-4.517,3.66-6.256,5.069a7.262,7.262,0,0,1-4.307,1.6l-4.71.157a.533.533,0,0,1-.469-.25l-.524-.9a.494.494,0,0,1-.027-.479.52.52,0,0,1,.377-.3l4.867-.919a3.389,3.389,0,0,0,2.714-3.7,3.327,3.327,0,0,0-3.312-2.961h-.166l-6.5-.267a14.889,14.889,0,0,0-7.426,1.665l-3.4,1.647a2.872,2.872,0,0,0-2.586-1.63h-3.763a2.849,2.849,0,0,0-2.862,2.835v14.013a2.862,2.862,0,0,0,2.862,2.845h3.763a2.854,2.854,0,0,0,2.852-2.845v-.947l3.616-.663a14.321,14.321,0,0,1,3.147-.185l9.891.461a14.268,14.268,0,0,0,9.78-3.3l6.855-5.686.009-.011a3.366,3.366,0,0,0,.46-4.636A.553.553,0,0,0-841.372,4455.165Zm-35.525,15.09a1,1,0,0,1-1,1h-3.792a1,1,0,0,1-1-1h0v-14a1,1,0,0,1,1-1h3.792a1.006,1.006,0,0,1,1,1h0Zm33.952-11.74-6.846,5.677a12.49,12.49,0,0,1-8.529,2.878l-9.891-.459a16.465,16.465,0,0,0-3.515.2.03.03,0,0,0-.027.011l-3.3.607v-10.49l3.938-1.9a13.119,13.119,0,0,1,6.551-1.481l6.551.267h.193a1.518,1.518,0,0,1,1.491,1.325,1.539,1.539,0,0,1-1.224,1.684l-4.867.921a2.363,2.363,0,0,0-1.877,2.76,2.413,2.413,0,0,0,.286.755l.524.892a2.367,2.367,0,0,0,2.116,1.159l4.711-.157a9.222,9.222,0,0,0,5.4-2c1.739-1.408,4.426-3.57,6.266-5.07a1.6,1.6,0,0,1,2.172.192.784.784,0,0,0,.073.11,1.523,1.523,0,0,1-.193,2.126Z" transform="translate(884.534 -4426.154)" fill="#1c1c1c" stroke="#1c1c1c" stroke-miterlimit="10" stroke-width="0.5"/>
    <path id="Path_7" data-name="Path 7" d="M-846.1,4438.685a12.051,12.051,0,0,0,12.035-12.033,12.059,12.059,0,0,0-12.035-12.044,12.052,12.052,0,0,0-12.035,12.035A12.059,12.059,0,0,0-846.1,4438.685Zm0-22.238a10.2,10.2,0,0,1,10.2,10.2,10.2,10.2,0,0,1-10.2,10.2,10.2,10.2,0,0,1-10.2-10.194v-.009a10.213,10.213,0,0,1,10.195-10.2Z" transform="translate(875.389 -4414.607)" fill="#1c1c1c" stroke="#1c1c1c" stroke-miterlimit="10" stroke-width="0.5"/>
    <path id="Path_8" data-name="Path 8" d="M-843.654,4430.062h-2.061a.927.927,0,0,0-.92.939.946.946,0,0,0,.285.661l5.143,4.868a.918.918,0,0,0,1.3-.036.919.919,0,0,0-.037-1.3l-3.469-3.284a3.962,3.962,0,0,0,2.586-1.15,4.122,4.122,0,0,0,1.076-1.895h1.233a.922.922,0,0,0,.919-.921.923.923,0,0,0-.919-.92h-1.233a3.853,3.853,0,0,0-.533-1.287h1.767a.923.923,0,0,0,.919-.921.922.922,0,0,0-.919-.92h-7.2a.923.923,0,0,0-.92.92.923.923,0,0,0,.92.921h2.061a2.2,2.2,0,0,1,1.96,1.287h-4.021a.923.923,0,0,0-.92.92.923.923,0,0,0,.92.921h4.021a2.965,2.965,0,0,1-.424.579A2.151,2.151,0,0,1-843.654,4430.062Z" transform="translate(871.405 -4417.825)" fill="#1c1c1c"/>
  </g>
</svg>
