<svg id="Group_11" data-name="Group 11" xmlns="http://www.w3.org/2000/svg" width="78.778" height="37.836" viewBox="0 0 78.778 37.836">
  <path id="Path_1" data-name="Path 1" d="M-616.392,4456.62a5.947,5.947,0,0,0,5.724,4.367,5.948,5.948,0,0,0,5.724-4.367h3.616a1.569,1.569,0,0,0,1.57-1.569v-11.888a1.57,1.57,0,0,0-.39-1.034l-9.138-10.431a1.563,1.563,0,0,0-1.18-.538h-7.61v-6.442a1.569,1.569,0,0,0-1.569-1.568h-32.411a1.57,1.57,0,0,0-1.569,1.568v2.118h-15.093a1.57,1.57,0,0,0-1.57,1.569,1.569,1.569,0,0,0,1.57,1.569h15.093v20.343h-9.085a1.569,1.569,0,0,0-1.57,1.569,1.569,1.569,0,0,0,1.57,1.569h9.085v1.6a1.569,1.569,0,0,0,1.569,1.569h3.276a5.947,5.947,0,0,0,5.725,4.367,5.948,5.948,0,0,0,5.724-4.367Zm-4.822-3.138h-16.118a5.945,5.945,0,0,0-5.725-4.369,5.946,5.946,0,0,0-5.724,4.369h-1.706v-27.194h29.272v27.194Zm-21.841,4.365a2.8,2.8,0,0,1-2.8-2.8,2.8,2.8,0,0,1,2.8-2.8,2.8,2.8,0,0,1,2.8,2.8A2.8,2.8,0,0,1-643.055,4457.848Zm32.387,0a2.8,2.8,0,0,1-2.8-2.8,2.8,2.8,0,0,1,2.8-2.8,2.8,2.8,0,0,1,2.8,2.8A2.8,2.8,0,0,1-610.667,4457.848Zm7.771-4.365h-2.047a5.946,5.946,0,0,0-5.724-4.369,5.946,5.946,0,0,0-5.724,4.369h-1.683V4434.3h6.9l8.281,9.452Z" transform="translate(678.536 -4423.15)" fill="#1c1c1c"/>
  <path id="Path_2" data-name="Path 2" d="M-667.879,4461.017h-.837a1.569,1.569,0,0,0-1.57,1.569,1.57,1.57,0,0,0,1.57,1.571h.837a1.57,1.57,0,0,0,1.569-1.571A1.569,1.569,0,0,0-667.879,4461.017Z" transform="translate(678.536 -4433.85)" fill="#1c1c1c"/>
  <path id="Path_3" data-name="Path 3" d="M-661.829,4446a1.571,1.571,0,0,0-1.569-1.57h-16.818a1.57,1.57,0,0,0-1.569,1.57,1.569,1.569,0,0,0,1.569,1.57H-663.4A1.57,1.57,0,0,0-661.829,4446Z" transform="translate(681.785 -4429.164)" fill="#1c1c1c"/>
</svg>
