<svg xmlns="http://www.w3.org/2000/svg" width="20.97" height="20.149" viewBox="0 0 20.97 20.149">
  <g id="Group_902" data-name="Group 902" transform="translate(-20 -226)">
    <path id="Path_170" data-name="Path 170" d="M1391.35,1609.852a.462.462,0,1,1,.454-.375.467.467,0,0,1-.454.375Zm0,0" transform="translate(-1364.1 -1368.015)"/>
    <path id="Path_171" data-name="Path 171" d="M1306.278,1609.826h-1.941a.462.462,0,0,1,0-.924h1.941a.462.462,0,1,1,0,.924Zm0,0" transform="translate(-1281.108 -1367.99)"/>
    <path id="Path_172" data-name="Path 172" d="M1438.653,1609.826h-1.941a.462.462,0,0,1,0-.924h1.941a.462.462,0,1,1,0,.924Zm0,0" transform="translate(-1407.366 -1367.99)"/>
    <path id="Path_173" data-name="Path 173" d="M1312.395,1652.8h-8.058a.462.462,0,0,1,0-.924h8.058a.462.462,0,1,1,0,.924Zm0,0" transform="translate(-1281.108 -1408.977)"/>
    <path id="Path_169" data-name="Path 169" d="M1263.173,1282H1245.8a1.8,1.8,0,0,0-1.8,1.8v2.759a.462.462,0,0,0,.462.462h.267v13.334a1.8,1.8,0,0,0,1.8,1.8h15.917a1.8,1.8,0,0,0,1.8-1.8v-2.495h0V1288.6h0v-1.584h.267a.462.462,0,0,0,.462-.462V1283.8A1.8,1.8,0,0,0,1263.173,1282Zm-5.219.924h5.219a.874.874,0,0,1,.873.873v2.3h-6.092Zm-6.014,0h5.089v3.17h-5.089Zm5.089,4.094v4.551l-2.328-1.236a.462.462,0,0,0-.434,0l-2.327,1.236v-4.551Zm-12.105-.924v-2.3a.874.874,0,0,1,.873-.873h5.219v3.17Zm11.846,15.131h-10.244a.874.874,0,0,1-.873-.873V1295.9h11.117Zm6.547-.873a.874.874,0,0,1-.873.873h-4.75v-5.79a.462.462,0,0,0-.462-.462h-11.579v-7.955h5.363v5.319a.463.463,0,0,0,.679.408l2.79-1.482,2.79,1.482a.463.463,0,0,0,.679-.408v-5.319h5.363Z" transform="translate(-1224 -1056)"/>
  </g>
</svg>
