<svg xmlns="http://www.w3.org/2000/svg" width="18" height="12" viewBox="0 0 20 14" prefix=""><g fill="none" fill-rule="evenodd" transform="translate(1 1)"><rect width="18" height="12" stroke="#000" rx="1"></rect><path fill="#000" fill-rule="nonzero" d="M5.236 9.088c1.336 0 2.328-.744 2.328-2.28V3.48H6.188v3.344c0 .704-.312 1.112-.936 1.112-.616 0-.936-.416-.936-1.128V3.48H2.94v3.336c0 1.544.944 2.272 2.296 2.272zM9.876 9V7.168h.352c1.336 0 2.224-.64 2.224-1.888 0-1.2-.824-1.8-2.168-1.8H8.508V9h1.368zm.304-2.864h-.32V4.512h.344c.608 0 .92.264.92.792 0 .568-.336.832-.944.832zM14.524 9V3.48h-1.368V9h1.368z"></path></g></svg>