<svg xmlns="http://www.w3.org/2000/svg" width="17.3" height="18.994" viewBox="0 0 17.3 18.994">
  <g id="Group_171" data-name="Group 171" transform="translate(0)">
    <g id="Group_661" data-name="Group 661">
      <path id="Path_262" data-name="Path 262" d="M1258.618,1687.291h0c-.192-1.684-.673-2.806-1.429-3.335l-.021-.013a29.656,29.656,0,0,0-4.04-1.934l.061-.067c1.623-1.826,1.38-4.888,1.343-5.27a4.4,4.4,0,0,0-2.11-3.9,4.8,4.8,0,0,0-2.318-.607h-.078a4.822,4.822,0,0,0-2.309.592,4.407,4.407,0,0,0-2.134,3.919c-.036.38-.27,3.45,1.344,5.27l.058.065a28.51,28.51,0,0,0-4.034,1.936l-.02.012c-.757.53-1.239,1.652-1.43,3.336a15.326,15.326,0,0,0-.084,2.169l0,.061c.085.827,1.22,1.088,1.648,1.187l.017,0a33.177,33.177,0,0,0,5.407.444q.785,0,1.57-.037c.4.007.812.009,1.215.01a28.521,28.521,0,0,0,5.762-.417l.015,0c.426-.1,1.559-.363,1.646-1.186l0-.057A15.39,15.39,0,0,0,1258.618,1687.291Zm-8.584-13.458h.042c1.215.027,2.684.556,2.8,2.929a.4.4,0,0,0,.008.082c.021.234.208,2.709-.929,3.987a2.358,2.358,0,0,1-1.86.772h-.066a2.351,2.351,0,0,1-1.854-.77c-1.168-1.311-.948-3.861-.935-4l0-.018a.376.376,0,0,0,0-.044C1247.363,1674.215,1249.043,1673.833,1250.033,1673.833Zm7.042,15.173c-.534.187-2.2.547-7.008.475h-.021c-4.8.072-6.466-.288-7-.475-.009-1.554.284-3.307.814-3.7a33.9,33.9,0,0,1,4.867-2.216,3.994,3.994,0,0,0,1.267.178h.125a4.041,4.041,0,0,0,1.275-.181,34.939,34.939,0,0,1,4.869,2.219C1256.816,1685.717,1257.088,1687.475,1257.076,1689.006Z" transform="translate(-1241.409 -1672.16)" fill="#313131"/>
    </g>
  </g>
</svg>
